<?xml version="1.0" standalone="no"?>
<!DOCTYPE svg PUBLIC "-//W3C//DTD SVG 20010904//EN"
 "http://www.w3.org/TR/2001/REC-SVG-20010904/DTD/svg10.dtd">
<svg version="1.0" xmlns="http://www.w3.org/2000/svg"
 width="310.000000pt" height="310.000000pt" viewBox="0 0 310.000000 310.000000"
 preserveAspectRatio="xMidYMid meet">
<metadata>
Created by potrace 1.14, written by Peter Selinger 2001-2017
</metadata>
<g transform="translate(0.000000,310.000000) scale(0.100000,-0.100000)"
fill="#000000" stroke="none">
<path d="M1924 3085 c-17 -21 -34 -55 -34 -70 0 -8 -5 -15 -12 -15 -6 0 -8 -3
-5 -6 3 -4 1 -16 -5 -28 -7 -11 -11 -24 -10 -28 1 -5 -3 -8 -9 -8 -5 0 -7 -4
-4 -10 3 -5 2 -10 -4 -10 -5 0 -8 -8 -7 -17 2 -10 -3 -24 -11 -31 -8 -8 -12
-19 -10 -26 2 -6 -2 -17 -10 -24 -7 -8 -11 -18 -8 -23 4 -5 2 -9 -4 -9 -6 0
-8 -7 -5 -15 4 -9 -1 -18 -11 -21 -13 -5 -14 -9 -3 -15 7 -5 8 -9 2 -9 -6 0
-19 -21 -29 -47 -10 -27 -22 -54 -28 -61 -5 -7 -7 -15 -4 -18 3 -4 0 -13 -8
-20 -8 -8 -11 -22 -8 -32 3 -9 2 -14 -2 -9 -7 6 -28 -37 -38 -78 -2 -5 -8 -20
-15 -32 -7 -12 -12 -29 -12 -37 0 -9 -4 -16 -10 -16 -5 0 -10 -9 -10 -19 0
-11 -5 -23 -10 -26 -6 -4 -8 -11 -5 -16 4 -5 1 -9 -5 -9 -6 0 -9 -4 -6 -9 3
-4 -4 -25 -14 -47 -11 -21 -20 -44 -20 -52 0 -7 -4 -11 -9 -8 -4 3 -8 -5 -7
-17 1 -12 -2 -25 -7 -28 -5 -3 -10 -12 -11 -20 -4 -21 -29 -73 -39 -80 -5 -3
-8 -9 -8 -13 2 -17 0 -20 -8 -8 -4 7 -19 14 -32 16 -14 1 -30 5 -36 9 -6 4
-23 8 -37 9 -14 1 -26 5 -26 8 0 4 -12 7 -27 7 -16 0 -56 3 -91 7 -49 5 -62 3
-56 -6 6 -10 4 -10 -7 -2 -8 7 -29 10 -48 8 -21 -3 -38 1 -43 8 -5 9 -8 8 -8
-4 0 -20 -20 -25 -20 -5 0 8 -3 8 -8 2 -4 -6 -17 -10 -29 -9 -13 1 -23 -2 -23
-6 0 -5 -11 -7 -25 -5 -14 1 -25 -1 -25 -4 0 -4 -8 -8 -17 -9 -46 -4 -64 -9
-74 -19 -6 -6 -18 -9 -25 -6 -8 3 -14 0 -14 -7 0 -6 -4 -9 -9 -5 -5 3 -17 -2
-25 -11 -9 -8 -16 -13 -16 -9 0 3 -13 -1 -30 -10 -16 -8 -32 -15 -35 -15 -3 0
-14 -9 -25 -20 -11 -11 -27 -20 -36 -20 -8 0 -12 -5 -9 -10 3 -6 0 -10 -8 -10
-22 0 -168 -151 -173 -178 -1 -8 -10 -22 -19 -32 -9 -10 -17 -27 -18 -38 0
-11 -4 -19 -8 -16 -7 4 -20 -28 -23 -56 -1 -8 -6 -24 -12 -35 -6 -11 -9 -30
-8 -43 1 -19 -3 -23 -17 -19 -11 3 -17 2 -14 -2 2 -4 -9 -8 -25 -8 -16 0 -27
4 -25 8 3 4 -13 -2 -35 -12 -22 -11 -44 -18 -48 -15 -10 6 -32 -20 -24 -30 4
-4 2 -4 -4 -1 -6 4 -23 -7 -38 -23 -14 -17 -23 -30 -20 -30 4 0 1 -6 -5 -14
-20 -24 -37 -146 -20 -146 4 0 6 -8 5 -17 -2 -10 6 -26 16 -37 10 -11 16 -26
14 -33 -3 -7 1 -13 9 -13 8 0 15 -3 15 -7 0 -5 20 -21 45 -36 28 -18 45 -36
45 -48 0 -10 5 -19 11 -19 8 0 7 -6 -2 -17 -12 -14 -12 -16 0 -8 11 6 13 4 8
-8 -4 -10 -2 -17 4 -17 6 0 9 -6 6 -14 -3 -7 -1 -18 3 -22 5 -5 11 -18 13 -29
1 -11 6 -25 10 -32 4 -6 8 -23 9 -37 1 -14 6 -26 10 -26 4 0 8 -9 8 -20 0 -11
5 -20 10 -20 6 0 10 -11 10 -24 0 -14 5 -28 10 -31 6 -3 10 -15 10 -26 0 -10
5 -19 11 -19 5 0 7 -4 4 -10 -3 -5 -2 -10 4 -10 5 0 8 -9 6 -20 -2 -11 0 -18
6 -15 5 4 9 -3 9 -15 0 -12 4 -19 8 -16 4 2 9 -5 9 -17 1 -12 7 -23 13 -25 5
-2 10 -12 10 -22 0 -9 7 -23 15 -30 8 -7 12 -16 9 -21 -3 -5 0 -9 5 -9 6 0 11
-10 11 -22 0 -12 3 -18 6 -15 4 4 19 -16 33 -43 15 -28 34 -59 44 -70 9 -11
17 -24 17 -28 0 -4 11 -20 25 -35 14 -15 23 -27 19 -27 -4 0 3 -8 14 -19 12
-10 22 -22 22 -27 0 -5 9 -15 20 -22 11 -7 20 -19 20 -26 0 -8 8 -17 18 -20
11 -4 25 -18 32 -31 7 -14 20 -25 27 -25 7 0 16 -7 19 -15 5 -13 87 -15 653
-15 l648 0 56 56 c31 31 57 61 57 66 0 5 5 6 10 3 9 -6 14 8 11 28 0 4 6 7 14
7 8 0 15 5 15 11 0 6 6 17 13 24 19 22 30 37 62 85 17 25 33 46 37 48 4 2 4
10 1 19 -4 10 -2 14 4 10 6 -4 16 8 24 26 7 17 17 35 22 38 4 3 9 14 11 23 1
10 8 21 14 25 6 4 13 17 15 30 2 12 9 26 16 30 6 4 13 18 14 29 1 12 5 22 10
22 4 0 5 4 2 10 -3 6 -1 10 4 10 6 0 11 9 11 19 0 11 5 21 11 23 7 2 13 17 15
33 2 15 8 31 14 35 7 4 11 9 10 11 -4 9 14 65 27 85 7 11 10 24 6 27 -3 4 0 7
8 7 11 0 11 2 -1 10 -8 5 -10 10 -4 10 6 0 15 15 19 33 4 17 9 34 9 37 14 41
19 49 29 43 9 -5 9 -3 0 8 -7 9 -8 20 -3 29 5 8 7 17 4 22 -3 4 9 14 26 23 16
8 30 20 30 25 0 6 4 9 8 8 15 -5 69 57 66 75 -1 9 1 15 6 12 4 -3 10 4 13 15
3 13 1 18 -6 13 -7 -4 -6 0 1 9 18 22 11 98 -11 131 -9 15 -17 32 -17 39 0 7
-14 22 -30 33 -16 11 -30 23 -30 28 0 4 -7 7 -15 7 -8 0 -15 4 -15 8 0 4 -8 9
-17 9 -67 7 -93 12 -104 18 -8 5 -10 4 -5 -3 11 -18 -21 -14 -36 4 -7 8 -21
24 -30 35 -10 10 -18 21 -18 23 0 6 -80 86 -86 86 -3 0 -17 11 -32 25 -24 23
-25 25 -7 26 11 1 23 1 28 0 4 0 7 4 7 10 0 5 5 7 10 4 6 -3 10 -1 10 5 0 6 5
8 10 5 6 -3 10 -1 10 4 0 6 3 10 8 9 13 -4 82 23 82 33 0 5 5 9 11 9 5 0 7 -6
3 -12 -4 -7 2 -5 13 5 11 9 23 14 26 10 4 -3 7 -1 7 6 0 8 8 11 20 8 11 -3 18
-1 14 4 -3 5 0 10 5 10 6 1 14 3 19 4 4 2 17 6 30 10 12 4 22 11 22 16 0 5 7
6 15 3 8 -4 15 -1 15 5 0 6 3 10 8 9 14 -3 62 14 62 23 0 5 7 6 15 3 8 -4 15
-1 15 7 0 7 3 9 7 6 3 -4 11 -3 17 2 6 4 35 16 64 26 28 11 52 23 52 29 0 5 3
7 6 3 4 -3 23 2 44 13 21 11 41 16 45 12 5 -4 5 -1 1 6 -4 6 -2 12 3 12 6 0
10 3 10 8 -1 4 -1 9 1 12 8 22 8 50 -1 50 -5 0 -7 5 -4 10 3 6 -1 13 -9 16 -9
3 -16 12 -16 20 0 8 -7 14 -16 14 -8 0 -13 4 -10 8 3 5 -6 15 -19 22 -14 7
-27 20 -30 29 -3 9 -23 30 -45 46 -21 17 -39 36 -40 43 0 6 -7 12 -16 12 -8 0
-13 4 -10 8 3 5 -6 15 -19 22 -14 7 -27 21 -31 32 -3 10 -8 18 -12 18 -9 0
-63 52 -81 78 -8 12 -17 19 -20 17 -3 -1 -17 12 -31 31 -14 18 -32 36 -41 39
-9 3 -22 16 -29 30 -7 13 -17 22 -22 19 -4 -3 -8 2 -8 10 0 9 -6 16 -12 16 -7
0 -22 14 -33 30 -11 16 -23 30 -26 30 -4 0 -23 16 -42 35 -19 19 -33 35 -29
35 3 0 -6 9 -19 20 -48 40 -99 91 -99 99 0 4 -11 14 -25 21 -13 7 -22 16 -20
20 2 3 -5 13 -17 21 -26 18 -78 72 -78 81 0 4 -8 9 -18 12 -11 4 -25 17 -32
31 -7 13 -17 22 -22 19 -4 -3 -8 3 -8 12 0 10 -3 15 -6 12 -3 -4 -14 2 -25 13
-21 21 -78 24 -95 4z m81 -205 c-3 -5 -1 -10 5 -10 15 0 41 -26 33 -34 -4 -3
-1 -6 5 -6 17 0 52 -32 46 -42 -3 -4 -1 -8 4 -8 15 0 112 -96 112 -111 0 -7 3
-10 6 -6 8 8 44 -25 38 -35 -3 -4 -1 -8 4 -8 15 0 112 -96 112 -111 0 -7 3
-10 6 -6 8 7 73 -56 67 -65 -2 -5 1 -8 7 -8 14 0 110 -98 110 -112 0 -5 4 -7
8 -4 10 6 42 -29 42 -46 0 -6 3 -9 6 -5 8 8 44 -25 38 -35 -3 -4 -1 -8 5 -8
13 0 121 -107 121 -120 0 -5 7 -10 16 -10 8 0 12 -4 9 -10 -3 -5 1 -10 11 -10
13 0 14 -3 5 -13 -6 -8 -7 -18 -3 -23 4 -4 -1 -2 -10 5 -10 7 -18 9 -18 4 0
-5 -12 -15 -27 -22 -21 -10 -28 -9 -34 1 -5 7 -9 10 -9 6 0 -11 -170 161 -170
172 0 6 -3 9 -8 7 -4 -1 -49 41 -101 93 -52 52 -99 93 -105 92 -6 -2 -8 -1 -4
3 3 4 -37 50 -90 103 -53 54 -96 100 -94 105 1 4 -3 7 -8 7 -6 0 -24 14 -40
30 -16 17 -37 30 -47 30 -13 0 -14 -3 -5 -12 8 -8 6 -17 -8 -36 -11 -14 -20
-33 -20 -44 0 -12 -4 -16 -12 -12 -7 4 -8 3 -4 -5 4 -6 2 -18 -4 -26 -6 -8 -9
-18 -6 -24 3 -5 1 -11 -6 -13 -6 -2 -13 -15 -15 -28 -2 -13 -9 -28 -16 -32 -6
-4 -8 -8 -4 -8 4 0 2 -10 -5 -22 -7 -13 -11 -26 -10 -30 1 -5 -2 -8 -8 -8 -6
0 -9 -3 -9 -7 4 -25 -2 -43 -13 -37 -8 5 -9 2 -5 -9 4 -10 1 -17 -6 -17 -8 0
-6 -4 3 -10 8 -5 10 -10 5 -10 -6 0 -16 -9 -23 -21 -11 -17 -11 -20 0 -13 7 4
4 -3 -7 -16 -13 -15 -15 -21 -5 -16 9 5 8 2 -2 -7 -10 -8 -15 -17 -11 -20 3
-4 1 -7 -5 -7 -6 0 -9 -6 -6 -14 3 -8 0 -17 -5 -21 -6 -3 -9 -11 -6 -16 4 -5
2 -9 -4 -9 -5 0 -13 -15 -16 -32 -4 -18 -11 -35 -15 -38 -5 -3 -10 -14 -12
-25 -1 -11 -6 -22 -10 -25 -4 -3 -9 -17 -12 -30 -2 -14 -8 -24 -12 -23 -5 1
-10 -10 -11 -24 -2 -34 -21 -53 -33 -33 -5 8 -10 11 -10 7 0 -4 -12 3 -27 17
-15 14 -30 23 -35 20 -4 -3 -8 2 -8 11 0 9 -5 13 -11 9 -7 -4 -6 3 2 17 7 13
14 26 14 29 9 37 19 60 26 60 5 0 9 8 9 18 0 10 6 24 13 31 6 8 7 11 1 8 -6
-3 1 17 15 46 14 29 28 53 32 55 4 2 5 12 2 22 -3 12 0 20 6 20 7 0 9 5 6 10
-3 6 -1 10 5 10 6 0 8 5 5 10 -3 6 -2 10 4 10 6 0 8 7 5 15 -4 8 -1 15 6 15 6
0 9 4 5 9 -3 5 -1 12 5 16 5 3 10 15 10 26 0 10 4 19 9 19 5 0 8 11 7 25 -2
13 2 23 7 22 6 -1 12 4 13 11 1 6 3 14 4 17 3 6 5 12 15 43 4 12 12 22 19 22
6 0 4 4 -4 10 -12 8 -12 10 3 16 9 3 15 10 12 14 -3 5 -1 11 5 15 6 4 8 11 5
16 -4 5 -1 9 4 9 6 0 10 3 9 8 -3 12 25 82 34 82 4 0 5 6 2 14 -3 8 0 17 5 21
6 3 9 11 6 16 -4 5 -1 9 5 9 7 0 10 7 6 15 -3 8 -1 15 4 15 5 0 13 12 16 28 8
31 22 62 30 62 3 0 2 -4 -1 -10z m-809 -963 c3 -3 19 -1 35 3 19 6 27 5 23 -1
-3 -6 2 -10 12 -9 11 1 22 2 27 1 4 0 9 0 10 2 2 1 12 -5 22 -13 17 -13 18
-13 10 0 -7 12 -6 13 7 3 8 -7 27 -14 42 -15 14 -1 26 -6 26 -11 0 -4 5 -5 10
-2 6 3 10 1 10 -5 0 -6 5 -8 10 -5 6 4 27 -6 47 -21 20 -15 33 -22 29 -15 -7
10 -4 11 13 2 11 -7 21 -16 21 -21 0 -6 9 -10 20 -10 11 0 20 -6 20 -13 0 -6
13 -18 30 -25 16 -7 32 -22 35 -33 4 -11 11 -16 17 -13 7 4 8 2 4 -4 -5 -9
-13 -9 -29 0 -12 7 -25 11 -29 10 -5 -1 -8 5 -8 13 0 9 -6 15 -12 14 -7 -1
-26 4 -43 11 -16 8 -35 14 -41 15 -6 0 -19 6 -28 14 -12 10 -16 10 -16 1 0 -9
-3 -10 -13 -1 -8 6 -17 8 -20 4 -4 -3 -7 -2 -7 4 0 6 -15 12 -32 12 -34 1 -79
7 -88 11 -13 6 -47 4 -62 -3 -12 -5 -18 -3 -19 5 0 10 -2 10 -6 1 -3 -9 -10
-10 -23 -3 -10 6 -21 6 -24 2 -5 -8 -24 -11 -103 -15 -17 -1 -29 -6 -25 -11 3
-5 -5 -7 -16 -4 -12 4 -22 2 -22 -4 0 -6 -7 -8 -15 -4 -8 3 -15 1 -15 -4 0 -5
-9 -7 -20 -5 -11 2 -18 0 -15 -6 6 -8 -8 -13 -27 -10 -5 0 -8 -4 -8 -10 0 -5
-4 -8 -9 -4 -5 3 -16 -1 -24 -9 -8 -8 -17 -12 -21 -9 -3 4 -6 1 -6 -5 0 -7 -5
-12 -11 -12 -19 0 -159 -120 -159 -136 0 -4 -8 -13 -17 -21 -12 -10 -13 -12
-3 -8 10 4 10 2 -2 -8 -10 -7 -21 -25 -27 -38 -7 -19 -16 -25 -37 -24 -16 0
-35 5 -43 9 -9 6 -12 5 -7 -2 4 -7 -1 -10 -14 -9 -11 1 -20 6 -20 12 0 5 -5 3
-11 -5 -7 -11 -9 -5 -5 25 2 22 9 41 15 43 6 2 8 8 5 13 -3 6 1 18 9 27 16 19
31 53 29 65 -1 4 3 6 10 5 7 -2 12 2 13 9 0 6 10 20 22 31 13 10 20 22 16 26
-3 3 0 6 7 6 7 0 23 11 36 26 13 14 24 22 24 19 0 -3 10 3 22 15 24 22 109 66
121 62 4 -1 7 3 7 8 0 6 9 10 19 10 11 0 23 5 26 10 3 6 17 10 30 10 13 0 27
5 31 11 4 8 9 7 15 -2 7 -12 9 -12 9 0 0 8 7 11 20 8 11 -3 20 0 20 6 0 7 5 5
10 -3 6 -9 10 -10 10 -3 0 16 161 26 176 10z m748 -299 c-5 -9 -2 -9 9 1 14
11 17 11 17 0 0 -9 3 -10 8 -4 8 12 37 13 48 2 4 -4 20 -7 36 -7 15 0 36 -4
46 -9 9 -5 38 -19 65 -30 26 -12 47 -26 47 -32 0 -5 4 -8 9 -5 5 3 23 -7 41
-23 49 -42 11 -53 -59 -17 -23 13 -31 13 -31 4 0 -9 -3 -9 -9 1 -14 22 -225
20 -247 -2 -4 -4 -14 -1 -22 6 -13 9 -14 9 -8 0 5 -9 2 -11 -11 -6 -22 8 -53
38 -53 53 0 5 -5 10 -11 10 -6 0 -9 10 -7 23 2 15 9 21 22 19 10 -2 16 1 13 6
-3 4 12 8 33 7 22 -1 45 2 52 7 18 11 20 10 12 -4z m-1661 -301 c20 12 47 14
47 2 0 -6 6 -7 13 -2 18 11 127 10 127 -2 0 -5 4 -4 9 3 4 8 12 14 16 14 4 0
12 -6 16 -14 5 -7 9 -8 9 -3 0 6 16 11 35 11 19 0 35 -5 35 -11 0 -7 3 -7 8 0
4 6 21 11 37 11 17 0 33 -5 37 -11 5 -7 8 -7 8 1 0 13 62 13 72 -1 5 -7 8 -7
8 0 0 12 199 13 218 2 6 -5 12 -5 12 0 0 4 36 8 80 8 47 0 80 -4 80 -10 0 -6
3 -6 8 0 4 6 21 11 37 11 17 0 33 -5 37 -11 5 -6 8 -6 8 0 0 6 45 10 114 10
67 0 112 -3 109 -9 -4 -5 0 -6 7 -1 19 12 320 13 313 1 -4 -5 0 -6 8 -1 18 12
291 13 307 2 6 -5 12 -6 12 -1 0 5 36 9 80 9 47 0 80 -4 80 -10 0 -6 3 -6 8 0
4 6 21 11 37 11 17 0 33 -5 37 -11 5 -7 8 -7 8 0 0 12 200 12 220 0 9 -5 11
-4 6 3 -5 8 -2 10 8 6 9 -3 16 -13 16 -21 0 -8 4 -12 9 -9 5 3 11 -3 14 -13 5
-22 -25 -35 -42 -18 -7 7 -11 7 -11 1 0 -12 -29 -12 -48 0 -6 4 -12 3 -12 -3
0 -6 -11 -6 -29 -1 -15 4 -34 4 -42 0 -7 -5 -22 -4 -32 2 -14 7 -17 7 -13 -1
9 -13 -4 -14 -23 -2 -9 6 -22 6 -33 0 -13 -7 -18 -6 -18 3 0 9 -3 9 -12 0 -8
-8 -15 -9 -25 -1 -7 7 -13 7 -13 2 0 -5 -7 -10 -15 -10 -8 0 -15 5 -15 10 0 5
-8 3 -17 -4 -14 -12 -15 -12 -9 -1 7 11 4 12 -12 3 -15 -8 -23 -8 -28 0 -5 8
-9 8 -14 -1 -5 -9 -13 -9 -27 -1 -11 5 -23 8 -26 4 -10 -10 -51 -10 -64 0 -8
6 -13 6 -13 -1 0 -7 -10 -8 -29 -2 -15 4 -34 4 -42 0 -7 -5 -20 -5 -30 0 -9 5
-19 7 -21 4 -11 -10 -48 -12 -48 -2 0 7 -6 6 -15 -2 -12 -10 -15 -10 -15 0 0
9 -4 9 -13 2 -7 -6 -18 -7 -26 -2 -8 4 -19 6 -25 4 -31 -10 -66 -12 -66 -2 0
7 -4 7 -13 0 -7 -6 -18 -7 -27 -2 -7 4 -24 4 -37 -1 -15 -5 -23 -5 -23 2 0 6
-4 7 -10 4 -19 -12 -50 -14 -50 -3 0 7 -6 6 -15 -2 -12 -10 -15 -10 -15 0 0 9
-4 9 -13 2 -7 -6 -18 -7 -26 -2 -8 4 -19 6 -25 4 -31 -10 -66 -12 -66 -2 0 7
-4 7 -13 0 -7 -6 -18 -7 -27 -2 -7 4 -24 4 -37 -1 -16 -6 -23 -5 -23 4 0 9 -2
9 -8 0 -5 -8 -13 -9 -22 -3 -8 5 -21 5 -32 -1 -13 -7 -18 -6 -18 3 0 9 -3 9
-12 0 -8 -8 -15 -9 -25 -1 -7 7 -13 7 -13 2 0 -5 -7 -10 -15 -10 -8 0 -15 5
-15 10 0 5 -8 3 -17 -4 -14 -12 -15 -12 -9 -1 7 11 4 12 -12 3 -15 -8 -23 -8
-28 0 -5 8 -9 8 -14 -1 -5 -9 -13 -9 -27 -1 -11 5 -23 8 -26 4 -10 -10 -51
-10 -64 0 -8 6 -13 6 -13 -1 0 -7 -10 -8 -29 -2 -15 4 -34 4 -42 0 -7 -5 -22
-4 -32 2 -14 7 -17 7 -13 -1 9 -13 -4 -14 -23 -2 -9 6 -22 6 -33 0 -13 -7 -18
-6 -18 2 0 8 -4 9 -13 0 -10 -8 -17 -7 -25 1 -9 9 -12 9 -12 0 0 -14 -21 -12
-32 3 -5 6 -8 5 -8 -3 0 -9 -5 -10 -18 -3 -11 6 -24 6 -35 0 -12 -7 -17 -6
-17 3 0 9 -3 9 -12 0 -8 -8 -15 -9 -25 -1 -7 7 -13 7 -13 2 0 -5 -7 -10 -15
-10 -8 0 -15 4 -15 9 0 5 -6 6 -12 2 -19 -12 -48 -12 -48 -1 0 6 -5 6 -12 0
-7 -5 -27 -9 -44 -8 -27 2 -36 -4 -58 -38 -14 -23 -26 -34 -26 -27 0 9 -3 11
-8 5 -12 -17 -67 17 -70 44 -4 27 6 76 15 68 3 -3 13 1 21 10 11 10 17 12 20
4 2 -6 9 -8 15 -4z m191 -308 c-3 -5 -1 -9 4 -9 5 0 9 -6 10 -12 1 -19 9 -50
21 -81 6 -16 9 -32 6 -37 -3 -4 2 -13 10 -20 8 -7 17 -27 21 -46 3 -19 10 -34
15 -34 5 0 8 -3 7 -7 -1 -9 17 -60 32 -85 6 -10 10 -25 10 -33 0 -9 5 -13 10
-10 5 3 10 -2 10 -12 0 -11 5 -24 12 -31 7 -7 9 -12 4 -12 -4 0 2 -12 13 -26
11 -15 18 -30 15 -35 -3 -5 -1 -9 4 -9 5 0 15 -13 22 -30 7 -16 17 -30 22 -30
5 0 6 -4 3 -10 -3 -5 -1 -10 5 -10 6 0 16 -13 21 -30 6 -16 15 -30 20 -30 5 0
9 -7 9 -15 0 -9 7 -18 15 -21 8 -4 15 -12 15 -20 0 -7 8 -18 18 -23 9 -6 13
-11 8 -11 -5 0 3 -11 18 -25 15 -14 24 -25 20 -25 -4 0 5 -9 20 -21 14 -11 24
-25 21 -30 -4 -5 1 -9 9 -9 8 0 17 -4 20 -9 3 -4 -17 -7 -44 -6 -27 0 -47 -2
-44 -7 10 -16 -4 -7 -35 22 -17 17 -31 35 -31 41 0 5 -4 7 -10 4 -5 -3 -10 -1
-10 5 0 6 -6 17 -12 25 -23 23 -48 55 -48 60 0 5 -25 37 -48 61 -7 8 -10 14
-6 14 4 0 -2 10 -14 23 -12 13 -19 27 -15 30 3 4 1 7 -5 7 -7 0 -12 6 -12 14
0 7 -7 19 -15 26 -9 7 -14 19 -11 26 3 8 0 17 -7 21 -7 5 -21 26 -32 48 -11
22 -24 43 -29 46 -5 4 -5 12 -2 18 4 6 2 11 -4 11 -7 0 -10 6 -7 14 3 8 -1 17
-10 20 -9 4 -13 9 -10 12 3 3 -3 22 -14 41 -11 19 -20 45 -21 59 -1 13 -6 24
-9 24 -4 0 -10 13 -14 30 -4 16 -11 32 -16 35 -14 9 -11 27 4 19 6 -4 4 2 -6
14 -11 11 -16 26 -12 31 3 6 -1 14 -10 17 -13 5 -13 9 -3 22 11 13 11 14 -1 7
-11 -6 -13 -4 -8 8 4 10 1 17 -6 18 -7 0 -2 4 10 9 12 5 34 7 48 4 20 -3 25
-1 19 8 -4 7 2 5 14 -6 12 -10 19 -23 16 -27z m513 -854 c0 -8 -4 -12 -9 -9
-5 3 -6 10 -3 15 9 13 12 11 12 -6z"/>
</g>
</svg>
